<?xml version="1.0" encoding="UTF-8"?>
<svg viewBox="0 0 381.7485 288.46442" xmlns="http://www.w3.org/2000/svg" xmlns:xlink="http://www.w3.org/1999/xlink">
 <defs>
  <filter id="a">
   <feGaussianBlur stdDeviation=".30612"/>
  </filter>
  <linearGradient id="b">
   <stop stop-color="#fff" stop-opacity=".37762" offset="0"/>
   <stop stop-opacity="0" offset="1"/>
  </linearGradient>
  <linearGradient id="f" x1="242.93" x2="239.68" y1="347.12" y2="328.45" gradientUnits="userSpaceOnUse" xlink:href="#b"/>
  <linearGradient id="e" x1="311.28" x2="308.04" y1="347.05" y2="328.38" gradientUnits="userSpaceOnUse" xlink:href="#b"/>
  <linearGradient id="c" x1="530.63" x2="527.38" y1="344.13" y2="325.46" gradientUnits="userSpaceOnUse" xlink:href="#b"/>
  <linearGradient id="d" x1="402.03" x2="398.79" y1="345.31" y2="326.65" gradientUnits="userSpaceOnUse" xlink:href="#b"/>
 </defs>
 <g transform="translate(-194.8 -158.18)">
  <path d="m225.39 346.25c0.0276-1.8915-0.48325-5.8636-0.3152-8.2117l0.13781-6.1145 4.0585 9.0301c2.6789 6.829 2.6474 8.045 3.9338 8.3233 0.77061 0.16672-0.83445-0.51416-3.4078-0.48293l-4.4573 0.22384 0.0502-2.7682 3e-5 2e-5z" fill="#c2c1c4"/>
  <path d="m512.95 343.39c-0.16471-3.2624-2.6769-176.64-2.6388-181.82l0.0111-2.3579 4.1822 0.089c3.268 0 3.0704-0.28446 3.0751 0.48954 3e-3 0.44049 1.2282 38.329 2.7776 83.11l2.8172 81.419-3.1813 9.5269c-1.7497 5.2398-3.1048 9.7271-3.0113 9.9718 0.54533 1.4273 1.3059-0.20293 4.3216-9.2633l3.2314-9.7083-2.7758-80.259c-1.5267-44.142-2.7824-81.26-2.7904-82.484l-0.0591-2.8474 10.515-0.17792 10.737 0.2224 0.0331 3.6926c0.11604 1.4194 1.8803 38.607 4.0293 83.129l4.1297 80.771-4.2692 9.9278c-3.7294 8.2289-3.9968 9.9618-4.7555 10.163-0.48762 0.12939-7.1749 0.5689-13.665 0.70487l-12.778-0.15309 0.064-4.1507z"/>
  <path d="m314.62 348.57c-4.8944-0.13163-8.736-0.26166-10.335-0.28897l-2.907-0.0496-3.2117-8.8348-2.7045-8.6826-1.1712-81.437c-0.69998-44.734-1.3713-83.087-1.3679-85.289l-0.0954-4.9175 12.584 0.15217 11.924-0.15217-0.0984 18.342c2e-3 9.6419 0.16658 47.79 0.36616 84.774l0.36287 67.244 3.5875 8.1294c1.9731 4.4712 3.6904 8.1269 3.8163 8.1239 1.137-0.0271 0.86088-0.97924-2.5146-8.6712l-3.5715-8.1388-0.29426-55.219c-0.16185-30.37-0.30274-68.394-0.31309-84.496l-0.0695-30.038 4.483 0.20289 4.5338-0.0507 0.2775 16.512c0.12472 8.663 0.256 44.532 0.53968 79.772s0.56384 70.599 0.68457 78.577l0.11807 14.708-2.3554-0.0163-12.268-0.25565z"/>
  <path d="m254.3 337-3.5955-6.7609 8e-3 -10.339c5e-3 -5.6867 0.24109-41.975 0.52566-80.64s0.52111-72.343 0.52566-74.839l-0.0498-5.3468 4.3644 0.17323 4.4222 0.0577 0.0629 14.486c-0.12421 7.5862-0.66002 46.114-1.0496 85.758s-0.74425 74.68-0.78829 77.858l-0.0224 7.1629-3.5378-6.068-0.8656-1.5014h4e-5z"/>
  <path d="m198.79 159.03-3.4894 285.23c16.126 2.3047 34.151 2.71 55.292 0l-0.81527-95.311-25.086 0.64753 3.2377-190.57h-29.139z" fill="none" stroke="#000"/>
  <path d="m228.58 159.03-3.2377 171.33 7.1228 18.131 26.549-0.64753 1.9426-188.81h-32.377z" fill="none" stroke="#000"/>
  <path d="m261.6 159.03-1.654 189.75h-9.5218l0.81527 95.479c17.179 2.0827 34.671 2.9095 53.098 0l-0.39583-94.509-11.26 0.0366-0.39201-190.76h-30.69v-2e-5z" fill="none" stroke="#000"/>
  <path d="m292.55 159.03 2.7266 171.98 5.8278 17.483 28.491 0.64753-1.6871-190.11h-35.359z" fill="none" stroke="#000"/>
  <path d="m328.3 159.03 1.2951 190.76-24.57 0.0366-0.0366 94.436c16.2 2.3992 33.489 2.6203 52.198-1e-5l-0.9069-285.23h-27.98l1e-5 -1e-5z" fill="none" stroke="#000"/>
  <path d="m356.28 159.03 1.4103 285.23c18.107 2.5835 36.214 2.4372 54.322 0l-0.18071-96.841-24.087-0.34122-1.5591-188.05h-29.906z" fill="none" stroke="#000"/>
  <path d="m386.58 159.03 1.6188 187.2 32.053 0.32377-3.6297-187.52h-30.042z" fill="none" stroke="#000"/>
  <path d="m417.66 159.03 2.7181 188.39-7.7704 6e-3 -0.37966 96.836c15.94 1.3146 32.289 2.3837 54.393 0l-1.0434-94.761-14.893 0.10756-4.6461-190.65-28.378 0.0718z" fill="none" stroke="#000"/>
  <path d="m447.05 159.03 3.6297 189.46h24.606l8.4179-22.664-4.2772-166.8h-32.377z" fill="none" stroke="#000"/>
  <path d="m479.82 159.03 1.5588 190.32-14.725 0.18071 0.32267 94.724c16.251 1.9401 33.353 3.0297 54.573 0l-1.7275-95.085h-7.8414l-3.159-190.14h-29.002z" fill="none" stroke="#000"/>
  <path d="m510 159.03 2.8457 188.81 26.549-0.64753 9.0654-20.073-8.1624-168.09h-30.298z" fill="none" stroke="#000"/>
  <path d="m541.2 159.03 2.3615 189.93-23.054 0.18071 1.1509 95.12c18.131 2.3318 36.262 1.3812 54.393 0l-7.0076-285.23h-27.844z" fill="none" stroke="#000"/>
  <path d="m251.05 159.44-1.1008 170.93 8.6859 15.52" fill="none" stroke="#171717" stroke-linecap="round" stroke-linejoin="round" stroke-width="1.7"/>
  <path d="m317.93 159.47 0.65524 169.6 8.0866 18.217" fill="none" stroke="#171717" stroke-linecap="round" stroke-linejoin="round" stroke-width="1.7"/>
  <path d="m454.18 159.03 5.5723 169.39-6.4753 15.541" fill="none" stroke="#171717" stroke-width="1.7"/>
  <path d="m518.21 159.39 5.6468 165.15-6.4753 19.426" fill="none" stroke="#171717" stroke-linecap="round" stroke-linejoin="round" stroke-width="1.7"/>
  <path d="m229.22 339.39-3.5922-9.1625 1.548-81.638c0.81964-44.837 1.5822-82.414 1.6945-84.42l0.031-4.8034 11.102-0.40422 10.524 0.23099-0.17239 8.079c4.6e-4 4.0623-0.24883 42.474-0.55401 85.358l-0.55487 77.972 4.4695 7.5255c2.4582 4.139 5.1624 8.8203 5.1624 9.203 0 0.64149-0.86015 0.24977-4.8801 0.43771-2.3982 0.11212-8.0103 0.52636-12.542 0.63823l-8.8167-0.20082-3.4189-8.816z"/>
  <path d="m404.53 346.38c-11.865-0.0825-14.281-0.0983-14.118-0.52253 0.1057-0.27545 1.5672-4.796 2.8778-9.2131l2.3828-8.031-1.8186-80.897c-1.0002-44.493-1.8872-82.459-1.971-84.368l-0.0767-3.9247 9.8524-0.15139 9.8524-0.0757 1.0821 85.412 1.1578 84.731 1.2882 7.995c1.1418 7.0868 1.3632 7.995 1.9485 7.995 0.36321 0 0.65934-0.12013 0.65806-0.26696s-0.56345-3.7108-1.2493-7.92l-1.247-7.653-1.039-75.462c-0.57143-41.504-1.1181-79.667-1.2148-84.806l-0.17587-9.8736 1.6898 0.15138 1.8412-0.0757 0.66359 4.8146c0.204 4.2473 2.8424 173.63 2.825 179.12-6e-3 2.0112 0.0901 2.8832-0.2266 2.9767-1.3801 0.40756-6.3699 0.24989-14.074 0.19632l-0.90832-0.15138z"/>
  <path d="m388.44 338.96c-9e-3 -3.1324-0.33176-39.314-0.71685-81.699s-0.77849-81.972-0.78173-87.6l0.0697-10.158 1.9803-0.22708 1.6775 0.0757-0.093 2.0426c-0.01 0.83204 0.82155 38.754 1.8468 84.272l1.8642 82.759-2.4262 8.1869c-1.3344 4.5028-2.7125 9.3355-2.8773 9.6292-0.17256 0.30742-0.76095-1.1252-0.77057-4.4044l0.22717-2.8763z"/>
  <path d="m450.91 347.02c-6.4e-4 -0.44049-0.80117-42.367-1.779-93.171s-1.7782-93.671-1.7786-94.112c-7.8e-4 -0.76389 0.96729-0.48721 3.6833-0.48721 1.5662 0 2.6458-0.27359 2.6548-0.22469s1.065 38.832 2.6024 85.035l2.7952 84.005-3.2199 7.7607c-2.4224 5.8384-3.1188 7.8619-2.8115 8.1691 0.25781 0.2578 0.53239 0.28371 0.74458 0.0703 0.18488-0.18599 1.7594-3.782 3.4988-7.9911l3.1627-7.653-2.7666-82.937c-1.5216-45.615-2.7757-83.538-2.7869-84.272l-0.0328-2.1776 12.108 0.11081 12.2 0.10456 0.12257 6.3071c0.12492 3.1813 1.1097 40.58 2.1885 82.98l1.7522 77.614-3.6891 10.369c-2.144 5.7604-4.1145 10.963-4.251 11.306-0.22932 0.5756-1.4512 0.41377-12.27 0.41377l-11.918 0.20914 0.20813-1.4283h1e-5l-0.41843-5e-5z"/>
  <path d="m233.3 347.12-5.4499-15.074 20.64-1.0436 8.9286 15.538-24.119 0.57978z" fill="url(#f)" filter="url(#a)"/>
  <path d="m301.91 347.56-4.1754-16.349 20.003-0.15141 7.5266 16.558-23.354-0.0575z" fill="url(#e)" filter="url(#a)"/>
  <path d="m293.49 345.3c-0.16756-2.1524-0.27434-22.378-0.2373-44.946l0.0673-41.033 0.61305 35.967 0.61306 35.967 2.8745 8.6242c1.581 4.7433 2.8745 8.7841 2.8745 8.9796s-1.4626 0.35544-3.2502 0.35544h-3.2502l-0.30465-3.9135z" fill="#c2c1c4"/>
  <path d="m476.29 348.38c7e-3 -0.4755 3.7871-10.71 4.0544-10.978 0.11527-0.11528 0.20959 2.3876 0.20959 5.5619v5.7714h-2.1346c-1.1741 0-2.1323-0.1601-2.1294-0.35578z" fill="#c2c1c4"/>
  <path d="m537.71 347.92 2.3718-0.17296 1.2868-2.9413 1.2868-2.9413 0.0177 3.202 0.0177 3.202-3.6763-0.0877c-2.7457-0.0655-3.0759-0.13153-1.3045-0.26071z" fill="#c2c1c4"/>
  <path transform="matrix(-1 0 0 1 1060.7 0)" d="m522.18 345.89-7.7141-17.171 21.73-0.70818 6.4968 18.305-20.513-0.42651z" fill="url(#c)" filter="url(#a)"/>
  <path d="m391.66 345.13 4.7552-16.011 16.708-0.10736 2.6558 16.381-24.119-0.26284z" fill="url(#d)" filter="url(#a)"/>
  <path transform="matrix(-1 0 0 1 996.38 .76782)" d="m522.18 345.89-6.7544-17.683 19.811-0.51624 7.4564 18.625-20.513-0.42651z" fill="url(#c)" filter="url(#a)"/>
  <path d="m391.11 159.39 3.8852 169.03-5.1802 17.483" fill="none" stroke="#171717" stroke-linecap="round" stroke-linejoin="round" stroke-width="1.7"/>
  <path d="m412.09 159.39 2.3346 169.68 2.5901 16.188" fill="none" stroke="#171717" stroke-linecap="round" stroke-linejoin="round" stroke-width="1.7"/>
 </g>
</svg>
